<svg xmlns="http://www.w3.org/2000/svg" viewBox="0 0 900 440" font-family="'Segoe UI', Roboto, Helvetica, Arial, sans-serif">
  <rect width="900" height="440" fill="#ffffff"/>
  <rect x="0" y="0" width="900" height="440" fill="#0f1b33" opacity="0.06"/>
  <rect x="180" y="30" width="540" height="380" rx="12" fill="#ffffff" stroke="#dcdcdc" stroke-width="2"/>
  <text x="210" y="68" font-size="18" font-weight="700" fill="#111">Upload Certificate</text>
  <rect x="584" y="48" width="92" height="24" rx="12" fill="#FFF0D6" stroke="#FFA600"/>
  <text x="630" y="65" font-size="11" font-weight="700" fill="#8a5a00" text-anchor="middle">PROVIDER</text>
  <rect x="210" y="80" width="70" height="4" fill="#B3CB2D" rx="2"/>

  <circle cx="240" cy="118" r="14" fill="#B3CB2D"/><text x="240" y="123" font-size="12" font-weight="700" fill="#fff" text-anchor="middle">✓</text>
  <text x="262" y="123" font-size="12" fill="#777">Details</text>
  <line x1="330" y1="118" x2="380" y2="118" stroke="#B3CB2D" stroke-width="2"/>
  <circle cx="400" cy="118" r="14" fill="#B3CB2D"/><text x="400" y="123" font-size="12" font-weight="700" fill="#fff" text-anchor="middle">✓</text>
  <text x="422" y="123" font-size="12" fill="#777">Validity</text>
  <line x1="490" y1="118" x2="540" y2="118" stroke="#B3CB2D" stroke-width="2"/>
  <circle cx="560" cy="118" r="14" fill="#6B3FA0"/><text x="560" y="123" font-size="13" font-weight="700" fill="#fff" text-anchor="middle">3</text>
  <text x="582" y="123" font-size="12" font-weight="600" fill="#333">File (PDF)</text>

  <rect x="210" y="156" width="480" height="160" rx="10" fill="#faf8fc" stroke="#9D6FD4" stroke-width="2" stroke-dasharray="7 6"/>
  <text x="450" y="226" font-size="15" font-weight="600" fill="#6B3FA0" text-anchor="middle">Drag &amp; drop or click to browse</text>
  <text x="450" y="250" font-size="12" fill="#999" text-anchor="middle">Supported format: PDF only (max 10MB)</text>
  <circle cx="210" cy="156" r="13" fill="#FFA600"/><text x="210" y="161" font-size="12" font-weight="700" fill="#fff" text-anchor="middle">1</text>

  <rect x="380" y="356" width="90" height="38" rx="8" fill="#ffffff" stroke="#c0c0c0"/><text x="425" y="380" font-size="13" fill="#555" text-anchor="middle">Back</text>
  <rect x="590" y="356" width="100" height="38" rx="8" fill="#6B3FA0"/><text x="640" y="380" font-size="13" font-weight="700" fill="#fff" text-anchor="middle">Upload</text>
  <circle cx="690" cy="356" r="12" fill="#FFA600"/><text x="690" y="360" font-size="11" font-weight="700" fill="#fff" text-anchor="middle">2</text>
</svg>
