<svg xmlns="http://www.w3.org/2000/svg" viewBox="0 0 900 450" font-family="'Segoe UI', Roboto, Helvetica, Arial, sans-serif">
  <rect width="900" height="450" fill="#ffffff"/>
  <rect x="12" y="12" width="876" height="426" rx="12" fill="#ffffff" stroke="#dcdcdc" stroke-width="2"/>
  <rect x="12" y="12" width="876" height="38" rx="12" fill="#FFA600"/>
  <rect x="12" y="38" width="876" height="12" fill="#FFA600"/>
  <circle cx="36" cy="31" r="5" fill="#ffffff" opacity="0.9"/><circle cx="54" cy="31" r="5" fill="#ffffff" opacity="0.7"/><circle cx="72" cy="31" r="5" fill="#ffffff" opacity="0.5"/>
  <rect x="92" y="19" width="460" height="24" rx="12" fill="#ffffff"/>
  <text x="108" y="36" font-size="12" fill="#666">/ccm-provision</text>
  <rect x="762" y="19" width="114" height="24" rx="12" fill="#ffffff"/>
  <text x="819" y="36" font-size="11" font-weight="700" fill="#8a5a00" text-anchor="middle">PROVIDER</text>

  <text x="40" y="86" font-size="18" font-weight="700" fill="#111">CCM Provision Management</text>

  <!-- tabs -->
  <text x="130" y="127" font-size="13" fill="#999" text-anchor="middle">Inbound Requests</text>
  <rect x="230" y="104" width="120" height="36" rx="8" fill="#F3EDFA" stroke="#9D6FD4" stroke-width="1.5"/>
  <text x="290" y="127" font-size="13" font-weight="700" fill="#6B3FA0" text-anchor="middle">Shares</text>
  <circle cx="350" cy="104" r="13" fill="#FFA600"/><text x="350" y="109" font-size="12" font-weight="700" fill="#fff" text-anchor="middle">1</text>

  <!-- table -->
  <rect x="40" y="160" width="810" height="32" fill="#f4f2f8"/>
  <text x="58" y="181" font-size="12" font-weight="700" fill="#555">Type</text>
  <text x="220" y="181" font-size="12" font-weight="700" fill="#555">Consumer</text>
  <text x="430" y="181" font-size="12" font-weight="700" fill="#555">Status</text>
  <text x="570" y="181" font-size="12" font-weight="700" fill="#555">Consumer Status</text>
  <text x="760" y="181" font-size="12" font-weight="700" fill="#555">Last Shared</text>

  <rect x="40" y="192" width="810" height="50" fill="#ffffff" stroke="#eee"/>
  <text x="58" y="222" font-size="12" fill="#555">ISO 9001</text>
  <text x="220" y="222" font-size="12" fill="#555">bob</text>
  <rect x="430" y="207" width="70" height="24" rx="12" fill="#F0F5D5"/><text x="465" y="224" font-size="11" font-weight="700" fill="#5c6b16" text-anchor="middle">Active</text>
  <rect x="570" y="207" width="86" height="24" rx="12" fill="#E1F1FF"/><text x="613" y="224" font-size="11" font-weight="700" fill="#1565c0" text-anchor="middle">ACCEPTED</text>
  <text x="760" y="222" font-size="11" fill="#777">just now</text>

  <rect x="40" y="242" width="810" height="50" fill="#fbfbfb" stroke="#eee"/>
  <text x="58" y="272" font-size="12" fill="#555">ISO 14001</text>
  <text x="220" y="272" font-size="12" fill="#555">carol</text>
  <rect x="430" y="257" width="80" height="24" rx="12" fill="#FFF0D6"/><text x="470" y="274" font-size="11" font-weight="700" fill="#8a5a00" text-anchor="middle">Pending</text>
  <rect x="570" y="257" width="86" height="24" rx="12" fill="#FEE7E2"/><text x="613" y="274" font-size="11" font-weight="700" fill="#c0392b" text-anchor="middle">REJECTED</text>
  <text x="760" y="272" font-size="11" fill="#777">5 min ago</text>

  <rect x="40" y="316" width="810" height="102" fill="#F3EDFA" stroke="#9D6FD4" stroke-width="1.5" rx="10"/>
  <text x="60" y="344" font-size="13" font-weight="700" fill="#6B3FA0">Track your shares here</text>
  <text x="60" y="368" font-size="12" fill="#444">The Shares tab shows every certificate you have shared and the consumer's feedback.</text>
  <text x="60" y="392" font-size="12" fill="#777">Share statuses: Active · Pending · Revoked. Consumer feedback: RECEIVED · ACCEPTED · REJECTED.</text>
</svg>
