<svg xmlns="http://www.w3.org/2000/svg" viewBox="0 0 900 400" font-family="'Segoe UI', Roboto, Helvetica, Arial, sans-serif">
  <rect width="900" height="400" fill="#ffffff"/>
  <rect x="0" y="0" width="900" height="400" fill="#0f1b33" opacity="0.06"/>
  <rect x="240" y="40" width="420" height="320" rx="12" fill="#ffffff" stroke="#dcdcdc" stroke-width="2"/>
  <text x="270" y="78" font-size="17" font-weight="700" fill="#111">Share with partner (001-alice-wheel)</text>
  <rect x="270" y="90" width="70" height="4" fill="#B3CB2D" rx="2"/>
  <rect x="556" y="58" width="86" height="24" rx="12" fill="#FFF0D6" stroke="#FFA600"/>
  <text x="599" y="75" font-size="11" font-weight="700" fill="#8a5a00" text-anchor="middle">PROVIDER</text>

  <text x="270" y="128" font-size="12" font-weight="600" fill="#333">Partner *</text>
  <rect x="270" y="136" width="360" height="42" rx="8" fill="#f7f7f7" stroke="#cfcfcf"/>
  <text x="286" y="162" font-size="13" fill="#333">bob — BPNL0000000CONS</text>
  <text x="270" y="194" font-size="10" fill="#999">Select from your available partners (Contact List)</text>
  <circle cx="630" cy="157" r="12" fill="#FFA600"/><text x="630" y="161" font-size="11" font-weight="700" fill="#fff" text-anchor="middle">1</text>

  <rect x="270" y="212" width="16" height="16" rx="3" fill="#ffffff" stroke="#999"/>
  <text x="296" y="225" font-size="12" fill="#555">Add custom customer part Id (optional)</text>

  <rect x="270" y="252" width="360" height="42" rx="8" fill="#f4f4f4" stroke="#e0e0e0"/>
  <text x="286" y="278" font-size="13" fill="#b3b3b3">Customer Part Id</text>

  <rect x="440" y="308" width="90" height="38" rx="8" fill="#ffffff" stroke="#c0c0c0"/><text x="485" y="332" font-size="13" fill="#555" text-anchor="middle">Cancel</text>
  <rect x="540" y="308" width="90" height="38" rx="8" fill="#576A8F"/><text x="585" y="332" font-size="13" font-weight="700" fill="#fff" text-anchor="middle">Share</text>
  <circle cx="630" cy="308" r="12" fill="#FFA600"/><text x="630" y="312" font-size="11" font-weight="700" fill="#fff" text-anchor="middle">2</text>
</svg>
