<svg xmlns="http://www.w3.org/2000/svg" viewBox="0 0 900 470" font-family="'Segoe UI', Roboto, Helvetica, Arial, sans-serif">
  <rect width="900" height="470" fill="#ffffff"/>
  <rect x="12" y="12" width="876" height="446" rx="12" fill="#ffffff" stroke="#dcdcdc" stroke-width="2"/>
  <rect x="12" y="12" width="876" height="38" rx="12" fill="#B3CB2D"/>
  <rect x="12" y="38" width="876" height="12" fill="#B3CB2D"/>
  <circle cx="36" cy="31" r="5" fill="#ffffff" opacity="0.9"/><circle cx="54" cy="31" r="5" fill="#ffffff" opacity="0.7"/><circle cx="72" cy="31" r="5" fill="#ffffff" opacity="0.5"/>
  <rect x="92" y="19" width="460" height="24" rx="12" fill="#ffffff"/>
  <text x="108" y="36" font-size="12" fill="#666">/pcf/precalculation/001-alice-wheel</text>
  <rect x="760" y="19" width="116" height="24" rx="12" fill="#ffffff"/>
  <text x="818" y="36" font-size="11" font-weight="700" fill="#5c6b16" text-anchor="middle">CONSUMER</text>

  <text x="40" y="82" font-size="18" font-weight="700" fill="#111">PCF Precalculation</text>
  <text x="40" y="102" font-size="12" fill="#666">001-alice-wheel</text>
  <rect x="690" y="66" width="160" height="34" rx="8" fill="#1B5E20"/>
  <text x="770" y="88" font-size="12" font-weight="700" fill="#fff" text-anchor="middle">+ Add Subpart Relation</text>
  <circle cx="690" cy="66" r="13" fill="#FFA600"/><text x="690" y="71" font-size="12" font-weight="700" fill="#fff" text-anchor="middle">1</text>

  <!-- progress -->
  <text x="40" y="134" font-size="12" font-weight="700" fill="#333">PCF Collection Progress</text>
  <rect x="40" y="142" width="560" height="8" rx="4" fill="#ececec"/>
  <rect x="700" y="126" width="150" height="30" rx="8" fill="#e6e6e6"/><text x="775" y="146" font-size="12" font-weight="700" fill="#aaa" text-anchor="middle">Download JSON</text>

  <!-- stat cards -->
  <rect x="40" y="168" width="150" height="60" rx="8" fill="#f7f8fa" stroke="#e0e0e0"/><text x="115" y="196" font-size="22" font-weight="700" fill="#111" text-anchor="middle">0</text><text x="115" y="216" font-size="11" fill="#777" text-anchor="middle">Total Subparts</text>
  <rect x="200" y="168" width="150" height="60" rx="8" fill="#F5F9EE" stroke="#B3CB2D"/><text x="275" y="196" font-size="22" font-weight="700" fill="#1B5E20" text-anchor="middle">0</text><text x="275" y="216" font-size="11" fill="#5c6b16" text-anchor="middle">Delivered</text>
  <rect x="360" y="168" width="150" height="60" rx="8" fill="#FFF7EC" stroke="#FFA600"/><text x="435" y="196" font-size="22" font-weight="700" fill="#8a5a00" text-anchor="middle">0</text><text x="435" y="216" font-size="11" fill="#8a5a00" text-anchor="middle">Pending</text>

  <text x="40" y="256" font-size="13" font-weight="700" fill="#333">Subpart Relations</text>

  <!-- parent node -->
  <circle cx="52" cy="292" r="8" fill="#1B5E20"/>
  <rect x="72" y="276" width="320" height="34" rx="8" fill="#F5F9EE" stroke="#4CAF50"/>
  <text x="88" y="298" font-size="12" font-weight="700" fill="#1B5E20">001-alice-wheel  (parent part)</text>

  <!-- empty state dashed card -->
  <rect x="72" y="322" width="778" height="112" rx="12" fill="#fafafa" stroke="#bdbdbd" stroke-width="2" stroke-dasharray="7 6"/>
  <text x="461" y="356" font-size="14" font-weight="700" fill="#666" text-anchor="middle">No Subparts Added</text>
  <text x="461" y="378" font-size="12" fill="#999" text-anchor="middle">Add subpart relations to request PCF data</text>
  <rect x="391" y="392" width="140" height="34" rx="8" fill="#1B5E20"/>
  <text x="461" y="414" font-size="13" font-weight="700" fill="#fff" text-anchor="middle">+ Add Subpart</text>
  <circle cx="391" cy="392" r="13" fill="#FFA600"/><text x="391" y="397" font-size="12" font-weight="700" fill="#fff" text-anchor="middle">2</text>
</svg>
