<svg xmlns="http://www.w3.org/2000/svg" viewBox="0 0 900 420" font-family="'Segoe UI', Roboto, Helvetica, Arial, sans-serif">
  <rect width="900" height="420" fill="#ffffff"/>
  <rect x="12" y="12" width="876" height="396" rx="12" fill="#ffffff" stroke="#dcdcdc" stroke-width="2"/>
  <rect x="12" y="12" width="876" height="38" rx="12" fill="#B3CB2D"/>
  <rect x="12" y="38" width="876" height="12" fill="#B3CB2D"/>
  <circle cx="36" cy="31" r="5" fill="#ffffff" opacity="0.9"/><circle cx="54" cy="31" r="5" fill="#ffffff" opacity="0.7"/><circle cx="72" cy="31" r="5" fill="#ffffff" opacity="0.5"/>
  <rect x="92" y="19" width="460" height="24" rx="12" fill="#ffffff"/>
  <text x="108" y="36" font-size="12" fill="#666">/pcf/precalculation/001-alice-wheel</text>
  <rect x="760" y="19" width="116" height="24" rx="12" fill="#ffffff"/>
  <text x="818" y="36" font-size="11" font-weight="700" fill="#5c6b16" text-anchor="middle">CONSUMER</text>

  <!-- download button top -->
  <rect x="600" y="66" width="250" height="40" rx="8" fill="#B3CB2D"/>
  <text x="725" y="91" font-size="13" font-weight="700" fill="#3d4a0f" text-anchor="middle">Download JSON</text>
  <circle cx="600" cy="66" r="13" fill="#FFA600"/><text x="600" y="71" font-size="12" font-weight="700" fill="#fff" text-anchor="middle">2</text>

  <!-- expanded subpart row -->
  <rect x="40" y="120" width="810" height="50" rx="8" fill="#F5F9EE" stroke="#4CAF50" stroke-width="1.5"/>
  <text x="60" y="150" font-size="13" font-weight="700" fill="#333">001-alice-rim</text>
  <rect x="636" y="132" width="100" height="26" rx="13" fill="#F0F5D5"/><text x="686" y="150" font-size="12" font-weight="700" fill="#5c6b16" text-anchor="middle">Received</text>
  <circle cx="52" cy="120" r="12" fill="#FFA600"/><text x="52" y="124" font-size="11" font-weight="700" fill="#fff" text-anchor="middle">1</text>

  <!-- details panel -->
  <rect x="40" y="176" width="810" height="150" rx="10" fill="#ffffff" stroke="#e0e0e0"/>
  <text x="60" y="204" font-size="14" font-weight="700" fill="#1B5E20">PCF Details</text>
  <text x="60" y="234" font-size="12" fill="#777">Carbon Footprint</text>
  <text x="60" y="256" font-size="16" font-weight="700" fill="#1B5E20">4.8 kg CO2e</text>
  <text x="320" y="234" font-size="12" fill="#777">Delivered At</text>
  <text x="320" y="256" font-size="13" fill="#333">2026-07-02 10:16</text>
  <text x="600" y="234" font-size="12" fill="#777">Certificate Location</text>
  <text x="600" y="256" font-size="13" fill="#333">edc://.../pcf-cert.json</text>
  <rect x="60" y="278" width="770" height="34" fill="#F0F5D5" rx="8"/>
  <text x="80" y="300" font-size="12" fill="#5c6b16">These are the values the provider defined.</text>

  <rect x="40" y="338" width="810" height="58" fill="#FFF7EC" stroke="#FFA600" stroke-width="1.5" rx="10"/>
  <text x="60" y="362" font-size="12" fill="#8a5a00">① The requested subpart must reach the <tspan font-weight="700">Received</tspan> status. ② Then click <tspan font-weight="700">Download JSON</tspan> at the</text>
  <text x="60" y="382" font-size="12" fill="#8a5a00">top and confirm the downloaded PCF is exactly the data the provider shared.</text>
</svg>
