<svg xmlns="http://www.w3.org/2000/svg" viewBox="0 0 900 400" font-family="'Segoe UI', Roboto, Helvetica, Arial, sans-serif">
  <rect width="900" height="400" fill="#ffffff"/>
  <rect x="12" y="12" width="876" height="376" rx="12" fill="#ffffff" stroke="#dcdcdc" stroke-width="2"/>
  <rect x="12" y="12" width="876" height="38" rx="12" fill="#FFA600"/>
  <rect x="12" y="38" width="876" height="12" fill="#FFA600"/>
  <circle cx="36" cy="31" r="5" fill="#ffffff" opacity="0.9"/><circle cx="54" cy="31" r="5" fill="#ffffff" opacity="0.7"/><circle cx="72" cy="31" r="5" fill="#ffffff" opacity="0.5"/>
  <rect x="92" y="19" width="460" height="24" rx="12" fill="#ffffff"/>
  <text x="108" y="36" font-size="12" fill="#666">/product/…/001-alice-wheel</text>
  <rect x="762" y="19" width="114" height="24" rx="12" fill="#ffffff"/>
  <text x="819" y="36" font-size="11" font-weight="700" fill="#8a5a00" text-anchor="middle">PROVIDER</text>

  <text x="40" y="82" font-size="12" fill="#576A8F">&#8592; Back to Catalog</text>

  <text x="40" y="120" font-size="20" font-weight="700" fill="#111">001-alice-wheel</text>

  <!-- top-right action buttons -->
  <rect x="536" y="98" width="140" height="38" rx="8" fill="#576A8F"/>
  <text x="606" y="122" font-size="13" font-weight="700" fill="#fff" text-anchor="middle">Register part</text>
  <rect x="686" y="98" width="120" height="38" rx="8" fill="#ffffff" stroke="#576A8F" stroke-width="1.5"/>
  <text x="746" y="122" font-size="13" font-weight="700" fill="#576A8F" text-anchor="middle">Share part</text>
  <circle cx="536" cy="98" r="13" fill="#FFA600"/><text x="536" y="103" font-size="12" font-weight="700" fill="#fff" text-anchor="middle">1</text>
  <circle cx="806" cy="98" r="13" fill="#FFA600"/><text x="806" y="103" font-size="12" font-weight="700" fill="#fff" text-anchor="middle">2</text>

  <rect x="40" y="160" width="360" height="90" rx="10" fill="#f7f8fa" stroke="#e0e0e0"/>
  <text x="60" y="188" font-size="13" font-weight="700" fill="#333">Specifications</text>
  <text x="60" y="212" font-size="12" fill="#666">Manufacturer ID · Created · Status</text>

  <rect x="40" y="270" width="810" height="100" fill="#FFF7EC" stroke="#FFA600" stroke-width="1.5" rx="10"/>
  <text x="60" y="298" font-size="13" font-weight="700" fill="#8a5a00">Way 2 — from View Details</text>
  <text x="60" y="322" font-size="12" fill="#444">The top of the part's detail page has the same actions: ① Register part (Register Twin)</text>
  <text x="60" y="344" font-size="12" fill="#444">and ② Share part (Share Twin). Use whichever entry point you prefer.</text>
</svg>
