<svg xmlns="http://www.w3.org/2000/svg" viewBox="0 0 900 470" font-family="'Segoe UI', Roboto, Helvetica, Arial, sans-serif">
  <rect width="900" height="470" fill="#ffffff"/>
  <rect x="12" y="12" width="876" height="446" rx="12" fill="#ffffff" stroke="#dcdcdc" stroke-width="2"/>
  <rect x="12" y="12" width="876" height="38" rx="12" fill="#B3CB2D"/>
  <rect x="12" y="38" width="876" height="12" fill="#B3CB2D"/>
  <circle cx="36" cy="31" r="5" fill="#ffffff" opacity="0.9"/><circle cx="54" cy="31" r="5" fill="#ffffff" opacity="0.7"/><circle cx="72" cy="31" r="5" fill="#ffffff" opacity="0.5"/>
  <rect x="92" y="19" width="460" height="24" rx="12" fill="#ffffff"/>
  <text x="108" y="36" font-size="12" fill="#666">/dataspace-discovery</text>
  <rect x="760" y="19" width="116" height="24" rx="12" fill="#ffffff"/>
  <text x="818" y="36" font-size="11" font-weight="700" fill="#5c6b16" text-anchor="middle">CONSUMER</text>

  <text x="40" y="82" font-size="16" font-weight="700" fill="#333">001-alice-wheel — Submodels (shown as cards)</text>

  <!-- 4 submodel cards in a row -->
  <!-- PartType -->
  <rect x="40" y="104" width="196" height="200" rx="10" fill="#ffffff" stroke="#e0e0e0"/>
  <text x="58" y="132" font-size="12" font-weight="700" fill="#333">PartType</text>
  <text x="58" y="148" font-size="12" font-weight="700" fill="#333">Information</text>
  <rect x="58" y="160" width="58" height="20" rx="10" fill="#EAF1FE"/><text x="87" y="174" font-size="10" fill="#1565c0" text-anchor="middle">v1.0.0</text>
  <text x="58" y="204" font-size="9" fill="#999">MODEL</text>
  <text x="58" y="218" font-size="10" fill="#777" font-family="monospace">part_type_information</text>
  <rect x="58" y="256" width="160" height="30" rx="8" fill="#ffffff" stroke="#1976d2" stroke-width="1.5"/>
  <text x="138" y="276" font-size="11" font-weight="700" fill="#1976d2" text-anchor="middle">View Details</text>

  <!-- SingleLevel -->
  <rect x="246" y="104" width="196" height="200" rx="10" fill="#ffffff" stroke="#e0e0e0"/>
  <text x="264" y="132" font-size="12" font-weight="700" fill="#333">SingleLevel</text>
  <text x="264" y="148" font-size="12" font-weight="700" fill="#333">BomAsPlanned</text>
  <rect x="264" y="160" width="58" height="20" rx="10" fill="#EAF1FE"/><text x="293" y="174" font-size="10" fill="#1565c0" text-anchor="middle">v3.0.0</text>
  <text x="264" y="204" font-size="9" fill="#999">MODEL</text>
  <text x="264" y="218" font-size="10" fill="#777" font-family="monospace">single_level_bom</text>
  <rect x="264" y="256" width="160" height="30" rx="8" fill="#ffffff" stroke="#1976d2" stroke-width="1.5"/>
  <text x="344" y="276" font-size="11" font-weight="700" fill="#1976d2" text-anchor="middle">View Details</text>

  <!-- PCF v9 -->
  <rect x="452" y="104" width="196" height="200" rx="10" fill="#F5F9EE" stroke="#4CAF50" stroke-width="2"/>
  <text x="470" y="132" font-size="13" font-weight="700" fill="#1B5E20">PCF</text>
  <rect x="470" y="142" width="58" height="20" rx="10" fill="#DDEFD0"/><text x="499" y="156" font-size="10" fill="#1B5E20" text-anchor="middle">v9.0.0</text>
  <text x="470" y="204" font-size="9" fill="#7a9a4a">MODEL</text>
  <text x="470" y="218" font-size="10" fill="#3d5a1a" font-family="monospace">io.catenax.pcf</text>
  <rect x="470" y="256" width="160" height="30" rx="8" fill="#1976d2"/>
  <text x="550" y="276" font-size="11" font-weight="700" fill="#fff" text-anchor="middle">View Details</text>

  <!-- PCF v7 -->
  <rect x="658" y="104" width="196" height="200" rx="10" fill="#F5F9EE" stroke="#4CAF50" stroke-width="2"/>
  <text x="676" y="132" font-size="13" font-weight="700" fill="#1B5E20">PCF</text>
  <rect x="676" y="142" width="58" height="20" rx="10" fill="#DDEFD0"/><text x="705" y="156" font-size="10" fill="#1B5E20" text-anchor="middle">v7.0.0</text>
  <text x="676" y="204" font-size="9" fill="#7a9a4a">MODEL</text>
  <text x="676" y="218" font-size="10" fill="#3d5a1a" font-family="monospace">io.catenax.pcf</text>
  <rect x="676" y="256" width="160" height="30" rx="8" fill="#1976d2"/>
  <text x="756" y="276" font-size="11" font-weight="700" fill="#fff" text-anchor="middle">View Details</text>

  <circle cx="452" cy="104" r="13" fill="#FFA600"/><text x="452" y="109" font-size="12" font-weight="700" fill="#fff" text-anchor="middle">1</text>
  <circle cx="658" cy="104" r="13" fill="#FFA600"/><text x="658" y="109" font-size="12" font-weight="700" fill="#fff" text-anchor="middle">1</text>

  <text x="450" y="332" font-size="11" fill="#999" text-anchor="middle">1 of 2  •  4 total</text>

  <rect x="40" y="352" width="810" height="92" fill="#F5F9EE" stroke="#4CAF50" stroke-width="1.5" rx="10"/>
  <text x="60" y="380" font-size="13" font-weight="700" fill="#1B5E20">Find the PCF submodels</text>
  <text x="60" y="404" font-size="12" fill="#444">The submodels appear as cards. Between PartType and the SingleLevel aspects you will see the two</text>
  <text x="60" y="424" font-size="12" fill="#444">① PCF submodels (v9.0.0 and v7.0.0). Click View Details on one to read the PCF data (next image).</text>
</svg>
