<svg xmlns="http://www.w3.org/2000/svg" viewBox="0 0 900 400" font-family="'Segoe UI', Roboto, Helvetica, Arial, sans-serif">
  <rect width="900" height="400" fill="#ffffff"/>
  <rect x="12" y="12" width="876" height="376" rx="12" fill="#ffffff" stroke="#dcdcdc" stroke-width="2"/>
  <rect x="12" y="12" width="876" height="38" rx="12" fill="#FFA600"/>
  <rect x="12" y="38" width="876" height="12" fill="#FFA600"/>
  <circle cx="36" cy="31" r="5" fill="#ffffff" opacity="0.9"/><circle cx="54" cy="31" r="5" fill="#ffffff" opacity="0.7"/><circle cx="72" cy="31" r="5" fill="#ffffff" opacity="0.5"/>
  <rect x="92" y="19" width="460" height="24" rx="12" fill="#ffffff"/>
  <text x="108" y="36" font-size="12" fill="#666">/catalog</text>
  <rect x="762" y="19" width="114" height="24" rx="12" fill="#ffffff"/>
  <text x="819" y="36" font-size="11" font-weight="700" fill="#8a5a00" text-anchor="middle">PROVIDER</text>

  <text x="40" y="84" font-size="16" font-weight="700" fill="#333">Way 1 — the card's three-dots (⋮) menu</text>

  <!-- the card -->
  <rect x="40" y="104" width="300" height="230" rx="10" fill="#ffffff" stroke="#e0e0e0"/>
  <rect x="40" y="104" width="300" height="50" rx="10" fill="#f4f6f9"/>
  <text x="62" y="135" font-size="15" font-weight="700" fill="#333">001-alice-wheel</text>
  <!-- kebab -->
  <circle cx="312" cy="129" r="2.5" fill="#555"/><circle cx="312" cy="120" r="2.5" fill="#555"/><circle cx="312" cy="138" r="2.5" fill="#555"/>
  <circle cx="312" cy="129" r="13" fill="none" stroke="#FFA600" stroke-width="2"/>
  <text x="62" y="196" font-size="12" fill="#777">Manufacturer Part ID</text>
  <text x="62" y="216" font-size="13" fill="#333">001-alice-wheel</text>
  <rect x="62" y="240" width="80" height="26" rx="13" fill="#eef"/><text x="102" y="257" font-size="11" fill="#3a3ab0" text-anchor="middle">Draft</text>
  <circle cx="312" cy="104" r="12" fill="#FFA600"/><text x="312" y="108" font-size="11" font-weight="700" fill="#fff" text-anchor="middle">1</text>

  <!-- dropdown menu -->
  <rect x="326" y="140" width="170" height="96" rx="8" fill="#ffffff" stroke="#d8d8d8" stroke-width="1.5"/>
  <rect x="326" y="140" width="170" height="48" fill="#F5F9EE"/>
  <text x="346" y="170" font-size="13" font-weight="700" fill="#1B5E20">Register part</text>
  <text x="346" y="216" font-size="13" font-weight="700" fill="#576A8F">Share part</text>
  <circle cx="490" cy="164" r="12" fill="#FFA600"/><text x="490" y="168" font-size="11" font-weight="700" fill="#fff" text-anchor="middle">2</text>
  <circle cx="490" cy="210" r="12" fill="#FFA600"/><text x="490" y="214" font-size="11" font-weight="700" fill="#fff" text-anchor="middle">3</text>

  <rect x="540" y="120" width="310" height="200" fill="#FFF7EC" stroke="#FFA600" stroke-width="1.5" rx="10"/>
  <text x="560" y="148" font-size="13" font-weight="700" fill="#8a5a00">Two ways to register &amp; share</text>
  <text x="560" y="176" font-size="12" fill="#444">① Open the card's three-dots (⋮) menu</text>
  <text x="560" y="196" font-size="12" fill="#444">   in the Catalog Parts list.</text>
  <text x="560" y="220" font-size="12" fill="#444">② Register part — registers the twin.</text>
  <text x="560" y="240" font-size="12" fill="#444">③ Share part — opens the share dialog.</text>
  <text x="560" y="272" font-size="12" fill="#777">Way 2 (next image): the buttons at the</text>
  <text x="560" y="292" font-size="12" fill="#777">top of the part's View Details page.</text>
</svg>
