<svg xmlns="http://www.w3.org/2000/svg" viewBox="0 0 900 470" font-family="'Segoe UI', Roboto, Helvetica, Arial, sans-serif">
  <rect width="900" height="470" fill="#ffffff"/>
  <rect x="12" y="12" width="876" height="446" rx="12" fill="#ffffff" stroke="#dcdcdc" stroke-width="2"/>
  <rect x="12" y="12" width="876" height="38" rx="12" fill="#B3CB2D"/>
  <rect x="12" y="38" width="876" height="12" fill="#B3CB2D"/>
  <circle cx="36" cy="31" r="5" fill="#ffffff" opacity="0.9"/><circle cx="54" cy="31" r="5" fill="#ffffff" opacity="0.7"/><circle cx="72" cy="31" r="5" fill="#ffffff" opacity="0.5"/>
  <rect x="92" y="19" width="460" height="24" rx="12" fill="#ffffff"/>
  <text x="108" y="36" font-size="12" fill="#666">/dataspace-discovery</text>
  <rect x="760" y="19" width="116" height="24" rx="12" fill="#ffffff"/>
  <text x="818" y="36" font-size="11" font-weight="700" fill="#5c6b16" text-anchor="middle">CONSUMER</text>

  <text x="40" y="82" font-size="16" font-weight="700" fill="#333">Discovery results — pick your part card</text>

  <!-- top chips: Catalog Parts + results count -->
  <rect x="40" y="98" width="120" height="28" rx="14" fill="#F0F5D5" stroke="#B3CB2D"/>
  <text x="100" y="117" font-size="12" font-weight="700" fill="#5c6b16" text-anchor="middle">Catalog Parts</text>
  <rect x="760" y="98" width="90" height="28" rx="14" fill="#EAF1FE"/>
  <text x="805" y="117" font-size="12" fill="#1565c0" text-anchor="middle">3 results</text>

  <!-- card 1 -->
  <rect x="40" y="142" width="255" height="270" rx="12" fill="#ffffff" stroke="#e0e0e0"/>
  <rect x="56" y="158" width="60" height="22" rx="11" fill="#4CAF50"/><text x="86" y="173" font-size="10" font-weight="700" fill="#fff" text-anchor="middle">DTR 1</text>
  <text x="128" y="173" font-size="10" fill="#999" font-family="monospace">urn:uuid:9c…</text>
  <text x="56" y="212" font-size="15" font-weight="700" fill="#333">002-bob-frame</text>
  <text x="56" y="244" font-size="9" fill="#999">MANUFACTURER PART ID</text>
  <text x="56" y="258" font-size="11" fill="#555" font-family="monospace">002-bob-frame</text>
  <text x="56" y="286" font-size="9" fill="#999">ID SHORT</text>
  <text x="56" y="300" font-size="11" fill="#555" font-family="monospace">bob-frame</text>
  <rect x="56" y="360" width="223" height="34" rx="8" fill="#ffffff" stroke="#1976d2" stroke-width="1.5"/>
  <text x="167" y="382" font-size="13" font-weight="700" fill="#1976d2" text-anchor="middle">View  ↗</text>

  <!-- card 2 (ours, highlighted) -->
  <rect x="322" y="142" width="255" height="270" rx="12" fill="#F5F9EE" stroke="#4CAF50" stroke-width="2"/>
  <rect x="338" y="158" width="60" height="22" rx="11" fill="#4CAF50"/><text x="368" y="173" font-size="10" font-weight="700" fill="#fff" text-anchor="middle">DTR 1</text>
  <text x="410" y="173" font-size="10" fill="#999" font-family="monospace">urn:uuid:35…</text>
  <text x="338" y="212" font-size="15" font-weight="700" fill="#1B5E20">001-alice Wheel</text>
  <text x="338" y="244" font-size="9" fill="#7a9a4a">MANUFACTURER PART ID</text>
  <text x="338" y="258" font-size="11" fill="#3d5a1a" font-family="monospace">001-alice-wheel</text>
  <text x="338" y="286" font-size="9" fill="#7a9a4a">ID SHORT</text>
  <text x="338" y="300" font-size="11" fill="#3d5a1a" font-family="monospace">alice-wheel</text>
  <rect x="338" y="360" width="223" height="34" rx="8" fill="#1976d2"/>
  <text x="449" y="382" font-size="13" font-weight="700" fill="#fff" text-anchor="middle">View  ↗</text>
  <circle cx="322" cy="142" r="13" fill="#FFA600"/><text x="322" y="147" font-size="12" font-weight="700" fill="#fff" text-anchor="middle">1</text>
  <circle cx="561" cy="360" r="13" fill="#FFA600"/><text x="561" y="365" font-size="12" font-weight="700" fill="#fff" text-anchor="middle">2</text>

  <!-- card 3 -->
  <rect x="604" y="142" width="255" height="270" rx="12" fill="#ffffff" stroke="#e0e0e0"/>
  <rect x="620" y="158" width="60" height="22" rx="11" fill="#2196F3"/><text x="650" y="173" font-size="10" font-weight="700" fill="#fff" text-anchor="middle">DTR 2</text>
  <text x="692" y="173" font-size="10" fill="#999" font-family="monospace">urn:uuid:7b…</text>
  <text x="620" y="212" font-size="15" font-weight="700" fill="#333">003-carol-axle</text>
  <text x="620" y="244" font-size="9" fill="#999">MANUFACTURER PART ID</text>
  <text x="620" y="258" font-size="11" fill="#555" font-family="monospace">003-carol-axle</text>
  <text x="620" y="286" font-size="9" fill="#999">ID SHORT</text>
  <text x="620" y="300" font-size="11" fill="#555" font-family="monospace">carol-axle</text>
  <rect x="620" y="360" width="223" height="34" rx="8" fill="#ffffff" stroke="#1976d2" stroke-width="1.5"/>
  <text x="731" y="382" font-size="13" font-weight="700" fill="#1976d2" text-anchor="middle">View  ↗</text>

  <text x="40" y="440" font-size="12" fill="#777">① Results appear as cards. Find the card named with your ID (001-alice-wheel).  ② Click View to open it and see its submodels.</text>
</svg>
