<svg xmlns="http://www.w3.org/2000/svg" viewBox="0 0 900 400" font-family="'Segoe UI', Roboto, Helvetica, Arial, sans-serif">
  <rect width="900" height="400" fill="#ffffff"/>
  <rect x="12" y="12" width="876" height="376" rx="12" fill="#ffffff" stroke="#dcdcdc" stroke-width="2"/>
  <rect x="12" y="12" width="876" height="38" rx="12" fill="#B3CB2D"/>
  <rect x="12" y="38" width="876" height="12" fill="#B3CB2D"/>
  <circle cx="36" cy="31" r="5" fill="#ffffff" opacity="0.9"/><circle cx="54" cy="31" r="5" fill="#ffffff" opacity="0.7"/><circle cx="72" cy="31" r="5" fill="#ffffff" opacity="0.5"/>
  <rect x="92" y="19" width="460" height="24" rx="12" fill="#ffffff"/>
  <text x="108" y="36" font-size="12" fill="#666">/dataspace-discovery</text>
  <rect x="760" y="19" width="116" height="24" rx="12" fill="#ffffff"/>
  <text x="818" y="36" font-size="11" font-weight="700" fill="#5c6b16" text-anchor="middle">CONSUMER</text>

  <rect x="40" y="72" width="810" height="256" rx="10" fill="#ffffff" stroke="#e0e0e0"/>
  <rect x="40" y="72" width="810" height="40" rx="10" fill="#f4f6f9"/>
  <text x="60" y="98" font-size="13" font-weight="700" fill="#333">Submodel Viewer — PCF (v9.0.0)</text>
  <rect x="650" y="80" width="86" height="24" rx="6" fill="#1976d2"/><text x="693" y="96" font-size="11" fill="#fff" text-anchor="middle">Structured</text>
  <rect x="742" y="80" width="84" height="24" rx="6" fill="#ffffff" stroke="#cfcfcf"/><text x="784" y="96" font-size="11" fill="#666" text-anchor="middle">JSON</text>
  <circle cx="650" cy="80" r="12" fill="#FFA600"/><text x="650" y="84" font-size="11" font-weight="700" fill="#fff" text-anchor="middle">1</text>

  <text x="60" y="146" font-size="12" fill="#555">pcf.pcfCO2eq</text><text x="420" y="146" font-size="13" font-weight="700" fill="#1B5E20">12.4 kg CO2e</text>
  <text x="60" y="176" font-size="12" fill="#555">pcf.declaredUnit</text><text x="420" y="176" font-size="12" fill="#333">piece</text>
  <text x="60" y="206" font-size="12" fill="#555">pcf.referencePeriodStart</text><text x="420" y="206" font-size="12" fill="#333">2026-01-01</text>
  <text x="60" y="236" font-size="12" fill="#555">pcf.standardName</text><text x="420" y="236" font-size="12" fill="#333">Catena-X PCF Rulebook v4</text>

  <rect x="60" y="262" width="770" height="50" fill="#F5F9EE" stroke="#4CAF50" stroke-width="1.5" rx="8"/>
  <text x="80" y="284" font-size="13" font-weight="700" fill="#1B5E20">Check</text>
  <text x="80" y="302" font-size="12" fill="#444">You can read the PCF data — it should match exactly what the provider created (SYNC flow).</text>

  <text x="40" y="356" font-size="12" fill="#777">The Structured tab shows the values in a readable form; the JSON tab shows the raw submodel payload.</text>
</svg>
